<?xml version="1.0" encoding="utf-8"?>
<!-- Generator: Adobe Illustrator 22.0.0, SVG Export Plug-In . SVG Version: 6.00 Build 0)  -->
<svg version="1.1" id="Слой_1" xmlns="http://www.w3.org/2000/svg" xmlns:xlink="http://www.w3.org/1999/xlink" x="0px" y="0px"
	 viewBox="0 0 598.2 631.5" style="enable-background:new 0 0 598.2 631.5;" xml:space="preserve">
<style type="text/css">
	.st0{fill:#1B1B1B;}
	.st1{fill:none;}
	.st2{fill:#FFFFFF;}
	.st3{fill:none;stroke:#FFFFFF;stroke-width:2;stroke-miterlimit:10;}
	.st4{fill:#CC2128;}
	.st5{fill:#FFFFFF;stroke:#000000;stroke-width:0.25;stroke-miterlimit:10;}
	.st6{fill:#CC2128;stroke:#000000;stroke-width:0.25;stroke-miterlimit:10;}
</style>
<rect id="XMLID_1_" class="st0" width="598.2" height="631.5"/>
<path id="XMLID_400_" class="st1" d="M390.4,150c0.2-0.3,0.4-0.7,0.6-1C390.8,149.3,390.6,149.6,390.4,150L390.4,150z"/>
<path id="XMLID_443_" class="st2" d="M334.6,264c-2.7-2.1-5.4-4.2-8.2-6.2l-6.2,8.3l4.7,2.8c1.3,1,2.5,2,3.8,3L334.6,264z"/>
<path id="XMLID_444_" class="st2" d="M299.9,241l-2.7,4.1l0,0l-2.6,3.9l9.6,5.7l1.5-3.2l3.7-5C306.3,244.6,303.2,242.7,299.9,241z"
	/>
<path id="XMLID_445_" class="st2" d="M350,277l-5.4,8.3c2,1.8,4,3.7,6,5.6l5.8-7.9C354.4,281,352.2,279,350,277z"/>
<path id="XMLID_446_" class="st2" d="M360,286.4l-5.4,8.3c2.2,2.1,4.3,4.3,6.5,6.6l5.8-7.8C364.7,291.2,362.4,288.9,360,286.4z"/>
<path id="XMLID_447_" class="st2" d="M346.3,273.6c-2.5-2.2-5.1-4.4-7.9-6.6l-6.3,9l6,3.5c0.8,0.7,1.5,1.3,2.3,2L346.3,273.6z"/>
<path id="XMLID_448_" class="st2" d="M373.6,292.1l-8.7,13.3c0,0,0.1,0.1,0.1,0.1l-2,3.1l5.8,5l7.8-11.1L373.6,292.1z"/>
<path id="XMLID_449_" class="st2" d="M386.1,313.5c-0.2-2.7-1.4-5.1-3.2-6.5l-2.1,3.7c0.9,0.7,1.5,1.8,1.5,3.1
	c0.1,2.2-1.3,4.1-3.1,4.3c-0.8,0.1-1.5-0.2-2.1-0.7l-2.1,3.7c1.3,1,2.8,1.6,4.5,1.4C383.5,322.2,386.4,318.2,386.1,313.5z"/>
<path id="XMLID_452_" class="st2" d="M216.7,277.8l9.7,14.6l0.1,5.7l3.9,5.4l1.5,2.1l0,0c0,0,0,0,0,0l-7.2,10l-0.4,0.5
	c0,0-5.8,5.2,0.9,21.5l0,0l-7.9,15.4l-3.1,6l14.4,22.7l1.5,2.3v0l-2.1,10.7l0.3,0.5l0.3,0.5l11.2,16.6l0,0l0.1,0.1l23.1-2.7
	c0,0-0.3-0.3-0.8-0.3l0.3-0.3h0l11-13l6.7,9.3l9.6-0.3l30.4-22.2l0.4-8.9l0.2-3.8l5.7-4.2l5.1,7.4l5.3,7.7v0.1h-0.8h0l5.7,3h0l3-0.8
	l7.1-1.9v0l1-0.6l9.9-13.8l8.4-11.8l3.1-18.6l-2.6-14.9l-0.1-0.7c0,0-9.8-1.4-10.6-1.5c-0.8-0.1-12.8,4.2-12.8,4.2s-5.2,8.2-5.7,8.7
	c-0.3,0.3-1.4,4.4-2.4,8.1l0,0l-25.8,17l-8.6-30.3l0,0l7.4-13.5v0l-2.9-22.6l-0.1-5l0-0.2l0-0.9l19.8,10l25,12.7l0.5-3.8l-48.8-32.8
	l0,0h0c-0.6-0.5-1.3-1-2-1.5c-0.4-0.3-0.8-0.6-1.3-0.9c-0.3-0.2-0.5-0.4-0.8-0.6c-7.7-5.1-21.5-12.5-41.8-16.2
	c-5.3-1-11-1.7-17.1-2.1c0.1-0.2,0.1-0.3,0.1-0.3l-7-0.6c0,0-1.8,12.3-9.4,21.3l-5.3-3.6l0,0l-0.1-0.1l-2.3-26.4
	c0,0,11-4.6,12.1-5.1c0.5,0,1.1-0.1,1.6-0.1l19-1l36.3,12.9c1.3-2.4,4.2-7.2,5.5-9.4c-0.7-0.4-1.4-0.7-2.1-1.1
	c-0.2-0.1-0.3-0.2-0.5-0.3c-0.8-0.4-1.6-0.8-2.5-1.2c-0.2-0.1-0.4-0.2-0.6-0.3c-1-0.5-2-0.9-3-1.4c-0.2-0.1-0.4-0.2-0.6-0.2
	c-0.8-0.4-1.6-0.7-2.4-1.1c-0.4-0.2-0.8-0.4-1.2-0.5c-0.6-0.2-1.2-0.5-1.8-0.7c-0.5-0.2-0.9-0.4-1.4-0.5c-0.6-0.2-1.2-0.5-1.7-0.7
	c-0.5-0.2-0.9-0.4-1.4-0.5c-0.6-0.2-1.2-0.5-1.8-0.7c-0.4-0.2-0.9-0.3-1.3-0.5c-0.2-0.1-0.3-0.1-0.5-0.2c-2.5-1.5-5-2.9-7.6-4.1
	c-1.8-0.9-3.7-1.7-5.6-2.4c1.5-3.4,2.8-6.1,3.8-8l0,0c0,0,3.4-3,2.9-2.7c-0.5,0.3-5.5-6.1-5.5-6.1s-7.3,7-12.8,16.6
	c0,0.6-0.1,1.2-0.2,1.8c-0.1,0.1-0.1,0.2-0.2,0.3l-15.4,3l-7.7,1.5l-0.8,0.1l-6.7,4.7l-7.7,5.3l5.6,33.6l3.2,5.1L216.7,277.8
	 M222.9,361.9l0.2-1.2l-0.4-7.5l0.1-0.3l2.9-1.5h0l11.1-2.5l12.6,2.6l3,1.3c0.4,0.4,1.2,0.8,1.5,1.2l10.9,16.2v0c1,1.6,1,3,1.5,4.3
	l1.7,5c0,0.1-0.1-0.1-0.1-0.1h-1.1v0.6l0.9,0.1l4.9,1.1l10.3-12.8c0.3-0.4,0.7-0.2,0.9-0.5l0.9-0.5h-2.3l-0.1-0.5
	c-2.8,0.1-7.3,0.3-7.3,0.3c0,0-0.7-0.7-1.5-1.5c-1.2-1-2.7-2.3-3-2.3c-0.5,0-5-13.1-5.3-14.5c0,0,0-0.1,0-0.1c0-0.1,0.4,0.3,1.1,1.1
	c0.1,0.1,0.3,0.3,0.4,0.5c0,0,0,0,0,0c2.3,2.7,6.5,7.9,6.5,7.9l16.6,4.2l3.3,4.8c-0.1,1.2-0.2,2.5-0.4,3.8c-0.5,3.1-1.6,6.2-3.7,7.8
	c-1.4,1.1-3.2,2.6-5.1,4.2c-3.5,4.2-9.2,10.8-9.2,10.8l-4.7-0.8v-0.7h0.2c0,0,0,0.3-0.1,0.1c-1.2-0.4-2.8-1-4.5-2.4
	c-0.5-0.4-0.9-0.7-1.4-1.2c-2.9-2.8-6-7.4-8.9-14.9c0,0-0.8-2.5-2.5-5.6c0,0,0.2,0,0.2-0.1v0c0,0-3.5-7.5-6.2-9.5l-0.9,0l-16,0.6
	l0,0l-0.8,0l3.5,3.7l0.7,1l3.8,0.6l5.2,0.7h0l4.9,0.7l-0.2,0.2l0,0l-2.9,4.3l-2.6,3.8l-0.5,0.1l-5.3,0.7l-4.3,0.6L222.9,361.9
	L222.9,361.9z M225.5,327.2c-0.1-0.8-0.3-1.7-0.4-2.6c0.1,0.1,0.2,0.2,0.4,0.4c0.3,0.4,0.7,0.8,1,1.1c7.3,7,14.3-2.1,14.3-2.1
	c4.5,5.7,13.1,8.4,13.1,8.4v-1.7c0-2.4,0.8-7.4-3.3-10.5c0,0-1.2-0.7-1.9-4.4c4.6,0.4,9.3,1.4,9.3,1.4c1.3,1.4,2.6,4.7,3.7,8.1
	c1.7,5.5,0.2,11.8-3.9,15.2c-1.6,1.4-2.9,2.4-2.9,2.4l-3.8-5.4c-7.3-7.8-9.2,3.3-9.2,3.3c-4.6-4.5-11.3-2.3-11.3-2.3h0.2l0,0v-0.2
	c0-0.1-0.3-0.1-0.4-0.2c-0.6-0.6-1.9-2.1-3.1-4.7c-0.4-0.8-0.7-1.7-1-2.6C226,329.5,225.7,328.3,225.5,327.2z M344.5,346.9l3.9-13.4
	l1-3.6l5.8-2.9l5.8-2.9l6.3,4.5l0.1,0.5l1.6,9l-1.1,8.2l-1.1,7.8l-9.2,13.8l-3.6,5.3l-4.1,0.2l-4.6,0.2l-2-3.9c0,0,2.6-0.5,5.2-1
	c0.7-0.1,1.4-0.3,2-0.4c0.1,0,0.2,0,0.3-0.1c0.2,0,0.4-0.1,0.5-0.1c1-0.2,1.7-0.3,1.7-0.4c0,0,0,0,0,0c0.2-0.2,0.9-1.1,1.7-2.2
	c0.5-0.7,1-1.4,1.5-2.1c0.2-0.2,0.3-0.5,0.5-0.7c0.1-0.1,0.2-0.2,0.2-0.3c1-1.4,1.7-2.4,1.7-2.4s0.8-1.5,1.7-3.2
	c0.3-0.5,0.5-1,0.8-1.5c0.1-0.2,0.2-0.4,0.3-0.6c0.1-0.3,0.3-0.6,0.4-0.8c0.6-1.1,1-2,1-2.1c0-0.1,0-0.7,0-1.6l-2.5-17.3
	c-1.2,0-2.6,0.1-3.6,0.1c-0.3,0-0.6,0-0.8,0c-0.1,0-0.2,0-0.3,0c-0.4,0-0.6,0-0.7,0h0c-0.4,0,3,11.5,3,11.5l-9.2-0.8l-0.3,6.5h0.4
	v-0.6l6.7-0.3l-2,6.6l-1.9,6.3c0,0-8,0.6-8.7,0.3L344.5,346.9z M248.1,274.2c0,0,0-0.1,0-0.1c0.1-0.5,0.2-1,0.4-1.5
	c0-0.1,0.1-0.2,0.1-0.3c0.1-0.3,0.2-0.6,0.3-1l1.2-0.8l1.9-1.2l6.7-0.3l0.6,0l4.9-0.2l4-1.2l2.6-0.4l8.8-1.3c0,0,14.9,8.6,24.7,15.9
	l0.2,7.2c0,0-0.9-0.8-8.1-3.8c0,0,0,0,0,0l-12.5-5.8c0,0-12.2-4.2-19.1,5.5c-0.1,0.1-0.1,0.1-0.1,0.1c18.9,0.7,25.4,7.3,27.6,11.1
	c0,0.1,0.1,0.1,0.1,0.2c0.1,0.2,0.2,0.4,0.3,0.6c0,0,0,0,0,0.1c0,0.1,0.1,0.2,0.1,0.2c0.4,0.9,0.6,1.5,0.6,1.5l-6.5,0.5v-1.7h-0.2
	l-1.7,1.9l-6,4.2c0,0-5.7-0.3-9.4-1.1c4,2.2,9.5,5.4,9.5,5.4l0,1.5l0,1.7l-10.9,0.4l-2.3-1.8l-11.2-8.3v0l-5-3.6
	c0.2-1,0.4-2.1,0.7-3.3l1.7-8.6l0.3-1.3l-5-3.1l-0.1,0C247.6,281.4,247.3,278.1,248.1,274.2z M243.1,283.7c0.1-0.6,0.2-1.1,0.3-1.4
	c-0.7,1.7-5.5,11.9-7.3,15.8l-1.4-1.3l-3.8-3.6v0l1.2-4l2.1-7.2l-0.7,0.5l0-0.3v0l-3.6,3l-1,0.9l-0.8,0.7l-4.1-5.3l3.1-3l2.5-2.4
	c0.2-0.1,0.5-0.3,0.7-0.4l0.4-0.2l2.4-1.1c1.9-0.7,4-1,6.2-0.8c0.8,0.1,1.7,0.2,2.6,0.5c0.2,0.9,0.4,1.8,0.6,2.7
	c0.1,0.3,0.1,0.6,0.2,0.9c0.2,0.7,0.3,1.4,0.4,2c0,0.1,0,0.2,0.1,0.3c0.1,0.3,0.1,0.5,0.2,0.8c0,0.1,0,0.2,0.1,0.3
	c0.1,0.4,0.1,0.7,0.2,0.9c0,0,0,0.1-0.1,0.2c0.1-0.1,0.1-0.2,0.1-0.2c0,0.2,0.1,0.3,0.1,0.4C243.5,282.6,243.3,283,243.1,283.7z"/>
<path id="XMLID_457_" class="st2" d="M282.1,295.3c0,0-1.6-1.4-3.8-2.8c-0.3-0.3-0.2-0.5-0.6-0.7c-1-0.6-1.7-1.1-2.7-1.6v0.1h-1
	c-0.3,0-0.6-0.3-1-0.4l-2.3-0.8c-1.9,2.3-2.5,7.1-2.5,7.1c1.3,0.7,3.8,0.7,3.9,0.7C274.9,297.4,278.9,297.4,282.1,295.3z"/>
<path id="XMLID_490_" class="st2" d="M322.5,255c-2.9-2.1-6-4.1-9.1-6.1l-6,7.9l6.4,3.8c1,0.7,1.9,1.4,2.9,2.1L322.5,255z"/>
<path id="XMLID_491_" class="st2" d="M343.3,215.6c0.8,0,1.2,0,1.2,0l-3,3.5l-3,3.4h-41.8c-0.1,1-0.2,2.3-0.3,3.2l-0.2,2.9
	c0,0.5-0.1,1.9-0.1,1.9c0,0,0,0,0,0l0-0.3c0,0,31.3,1.9,32.6,1.3l-6.8,9.5l-2.4,3.4c1.3,0.7,2.7,1.3,4.1,1.9
	c0.3,0.1,0.6,0.3,0.9,0.4c1.8,0.8,3.7,1.6,5.6,2.2c7.1,2.5,14.1,3.6,19,1.3c2.7-2,4.6-5.4,5.8-10.2c3.7-14.8-5.2-30.7-6.6-33
	c-0.1-0.1-0.1-0.2-0.2-0.3l-52.6,1.9l-1.9,0.1l3.2-6c0,0,0,0,0,0c1.4-6.2,2.8-13,2.8-13l-1.7-0.9h0l-5.6-4.3c0,0-11.1,0.9-18.5,8.4
	l0,0h0l0,0l0,0l9.9,1.8l-6.6,9.4l-0.1,0.1l-8-7.8h0l0,0.2l-0.1,0.1c-1.5,1.2-2.9,2.4-4.3,3.7c-0.5,0.5-1,1-1.5,1.5c0,0,0,0,0,0
	l-0.9,0.8l9.3,8.8l-4.9,5.2l18.8,8.8l3.7-8.6c0,0,0,0,0,0l0,0L343.3,215.6L343.3,215.6z"/>
<path id="XMLID_494_" class="st2" d="M344.9,183.7c-1.1-0.3-2.2-0.6-3.3-0.9c-9.2-2.7-22.7-5.1-36.9-2.4c-0.8,0.1-1.7,0.3-2.5,0.4
	c0,0,0,0,0,0.1c-0.2,0-0.4,0.1-0.6,0.1h0l4.7,4.5l-1.5,16.6c11.2-0.8,31.6-2.3,43.9-3.2l1.1-1.1l2.9-3.1l0.5-4.9c0,0,0,0,0,0
	l0.3-2.4l19.3,8.6l1.2-8.5l0,0l-8.8-8.5l0,0l3.3-5.5l7.8,5.8l13.5-32.8l-6,42.3l3.8,9.3l-1,7.2l-5.6,1.9l-0.1,0l0,0.1l-1.3,0.5
	l-0.1,0l-1.3,0.4l1.4,2l-0.1,0.1c0.2,0.2,0.3,0.3,0.5,0.5l0.3,0.4l0.1,0c0.7,0.7,1.6,1.6,2.5,2.7c58.6,72.3,0.5,142.9,0.5,142.9
	c2.8,10,5.7,20,8.5,29.9c0.8-0.2,2.6-0.8,4.3-2.5c1.6-1.7,2.2-3.6,2.4-4.4c-2.2-6.8-4.5-13.6-6.7-20.4c0.1,0.1,0.2,0.1,0.3,0.2
	l-0.5-1.1c0,0,24.2-27.3,24.2-74.4c0,0,0-41.1-28.3-71.9l-0.9-1.5l4.9-4.3l0.5-8.3l-4-10.1l4.5-49.9l0,0l0,0l-1.7,1.7l-32.1,32.2
	c0,0-2.6-0.6-5.3-1.1c-0.6-0.1-1.2-0.2-1.8-0.4l-6,4.9l-0.4,0.3C345.1,178.3,345,181,344.9,183.7z"/>
<g>
	<path class="st2" d="M130.4,378.1c-0.6,0.8-1.2,1.5-1.9,2.1c-0.1,0.1-0.2,0.1-0.2,0.2c-0.1,0.1-0.1,0.1-0.2,0.2
		c0,0-0.1,0.1-0.2,0.2c-0.1,0.1-0.2,0.2-0.4,0.4l-6.2,5.8c-0.5,0.5-0.9,1-1.2,1.7c-0.3,0.6-0.5,1.3-0.5,2h9.7c0.6,0,1,0.2,1.3,0.5
		c0.3,0.4,0.4,0.8,0.4,1.2c0,0.4-0.1,0.8-0.4,1.2c-0.3,0.4-0.7,0.5-1.3,0.5h-13.1v-1.7c0-1.5,0.2-3,0.6-4.3c0.4-1.3,1.2-2.5,2.3-3.6
		l6.2-5.8c0,0,0.1-0.1,0.2-0.2c0.1-0.1,0.3-0.2,0.4-0.4c0.1-0.1,0.1-0.1,0.2-0.2c0,0,0.1-0.1,0.2-0.1c0.4-0.4,0.8-0.8,1.1-1.2
		c0.4-0.4,0.5-0.8,0.5-1.2v-6.7c0-1.4-0.5-2.6-1.4-3.6c-1-1-2.1-1.5-3.5-1.5c-1.3,0-2.5,0.5-3.5,1.5c-1,1-1.5,2.2-1.5,3.6v3.1
		c0,0.6-0.2,1.1-0.5,1.4c-0.4,0.3-0.7,0.5-1.1,0.5c-0.4,0-0.8-0.2-1.1-0.5c-0.4-0.3-0.5-0.8-0.5-1.4v-3.1c0-2.4,0.8-4.4,2.5-6
		c1.6-1.7,3.6-2.5,5.8-2.5c2.3,0,4.2,0.8,5.9,2.5s2.4,3.7,2.4,6v6.7C131.3,376.3,131,377.3,130.4,378.1z M129.5,368
		c0-2-0.7-3.6-2.1-5.1c-1.4-1.4-3-2.1-4.9-2.1c-1.9,0-3.5,0.7-4.9,2.1c-1.4,1.4-2.1,3.1-2.1,5v3.1c0,0.1,0,0.2,0,0.2
		c0,0.1,0.1,0.1,0.3,0.1c0.2,0,0.3,0,0.3-0.1c0-0.1,0-0.2,0-0.2V368c0-1.8,0.6-3.3,1.9-4.6c1.2-1.3,2.7-1.9,4.4-1.9
		c1.7,0,3.2,0.6,4.5,1.9c1.2,1.3,1.9,2.8,1.9,4.6v6.7c0,0.8-0.2,1.4-0.7,2c-0.5,0.6-1,1.1-1.5,1.6c0,0-0.1,0.1-0.1,0.1
		c0,0-0.1,0.1-0.1,0.1c-0.1,0-0.1,0.1-0.2,0.1c-0.1,0.1-0.1,0.1-0.1,0.1c-0.1,0.1-0.1,0.1-0.2,0.2c0,0-0.1,0.1-0.2,0.2l-6.2,5.8
		c-1,0.9-1.7,2-2,3.1c-0.3,1.2-0.5,2.4-0.5,3.7c0,0.1,0,0.2,0.1,0.2s0.1,0.1,0.2,0.1c0,0,0.1,0,0.1,0h11.5c0.1,0,0.2,0,0.2,0
		c0.1,0,0.1-0.1,0.1-0.3c0-0.2,0-0.2-0.1-0.3c-0.1,0-0.1,0-0.2,0h-11.1c0-1.2,0.2-2.3,0.5-3.3s0.9-1.9,1.8-2.8l6.1-5.8
		c0.1-0.1,0.2-0.2,0.2-0.2c0.1,0,0.1-0.1,0.2-0.2c0,0,0.1-0.1,0.1-0.1c0,0,0.1-0.1,0.1-0.1c0.1-0.1,0.2-0.1,0.2-0.2
		c0.1-0.1,0.2-0.2,0.2-0.3c0.6-0.5,1.1-1.1,1.5-1.7c0.5-0.6,0.7-1.3,0.7-2.2V368z"/>
	<path class="st2" d="M154.5,391.4c-1.6,1.7-3.6,2.5-5.9,2.5c-2.3,0-4.2-0.8-5.8-2.5c-1.6-1.7-2.5-3.7-2.5-6.1v-16.9
		c0-2.3,0.8-4.3,2.5-6c1.6-1.7,3.6-2.5,5.8-2.5c2.3,0,4.2,0.8,5.9,2.5s2.4,3.7,2.4,6v16.9C156.9,387.7,156.1,389.7,154.5,391.4z
		 M155.2,368.1c0-2-0.7-3.7-2.1-5.1c-1.4-1.4-3-2.1-4.9-2.1c-1.9,0-3.5,0.7-4.9,2.1c-1.4,1.4-2.1,3.1-2.1,5.1v16.8
		c0,2,0.7,3.7,2.1,5.1c1.4,1.4,3,2.1,4.9,2.1c1.9,0,3.5-0.7,4.9-2.1c1.4-1.4,2.1-3.1,2.1-5.1V368.1z M152.7,389.5
		c-1.2,1.3-2.7,1.9-4.5,1.9c-1.7,0-3.2-0.6-4.4-1.9c-1.2-1.3-1.9-2.8-1.9-4.6v-16.8c0-1.8,0.6-3.3,1.9-4.6c1.2-1.3,2.7-1.9,4.4-1.9
		c1.7,0,3.2,0.6,4.5,1.9c1.2,1.3,1.9,2.8,1.9,4.6v16.8C154.5,386.7,153.9,388.2,152.7,389.5z M153.6,368.5c0-1.4-0.5-2.6-1.4-3.6
		c-1-1-2.1-1.5-3.5-1.5c-1.3,0-2.5,0.5-3.5,1.5c-1,1-1.5,2.2-1.5,3.6v16.9c0,1.4,0.5,2.6,1.5,3.6c1,1,2.1,1.5,3.5,1.5
		c1.4,0,2.5-0.5,3.5-1.5c1-1,1.4-2.2,1.4-3.6V368.5z"/>
</g>
<g>
	<path class="st2" d="M478.4,400.3c-0.4,0.3-0.7,0.4-1.1,0.4c-0.4,0-0.8-0.1-1.1-0.4c-0.4-0.3-0.5-0.7-0.5-1.3v-28.8h-1.8
		c-0.6,0-1-0.2-1.3-0.5c-0.3-0.4-0.5-0.8-0.5-1.2c0-0.4,0.2-0.8,0.5-1.2c0.3-0.4,0.7-0.5,1.3-0.5h5.2v32.3
		C478.9,399.5,478.7,400,478.4,400.3z M477.1,368c0-0.1,0-0.2-0.1-0.2c-0.1-0.1-0.2-0.1-0.2-0.1h-3.5c-0.1,0-0.2,0-0.2,0
		c-0.1,0-0.1,0.1-0.1,0.3c0,0.2,0,0.2,0.1,0.3c0.1,0,0.2,0,0.2,0h3.2v30.2c0,0.1,0,0.2,0,0.3c0,0.1,0.1,0.1,0.3,0.1
		c0.2,0,0.3,0,0.3-0.1s0-0.2,0-0.3V368z"/>
	<path class="st2" d="M502.1,398.2c-1.6,1.7-3.6,2.5-5.9,2.5c-2.3,0-4.2-0.8-5.8-2.5c-1.6-1.7-2.5-3.7-2.5-6.1v-16.9
		c0-2.3,0.8-4.3,2.5-6c1.6-1.7,3.6-2.5,5.8-2.5c1.1,0,2.2,0.2,3.2,0.7c1,0.4,1.9,1.1,2.7,1.9c0.1,0.1,0.2,0.2,0.2,0.3
		s0.1,0.2,0.2,0.3c0,0.1,0.1,0.2,0.1,0.3s0,0.2,0,0.3c0,0.2-0.1,0.4-0.2,0.7c-0.1,0.2-0.2,0.4-0.4,0.6c-0.1,0.2-0.3,0.3-0.5,0.4
		c-0.2,0.1-0.4,0.1-0.7,0.1c-0.2,0-0.4,0-0.6-0.1s-0.4-0.2-0.6-0.4c-0.5-0.5-1-0.9-1.6-1.2c-0.6-0.3-1.2-0.4-1.9-0.4
		c-1.3,0-2.5,0.5-3.5,1.5s-1.5,2.2-1.5,3.6v3.1c0.7-0.5,1.5-1,2.3-1.3c0.8-0.3,1.7-0.5,2.6-0.5c2.3,0,4.2,0.8,5.9,2.5
		c1.6,1.7,2.4,3.7,2.4,6v6.9C504.6,394.5,503.8,396.5,502.1,398.2z M502.8,384.7c0-2-0.7-3.7-2.1-5.1c-1.4-1.4-3-2.1-4.9-2.1
		c-1.4,0-2.6,0.4-3.8,1.2c-1.1,0.8-2,1.8-2.5,3v-6.9c0-1.8,0.6-3.3,1.9-4.6c1.2-1.3,2.7-1.9,4.4-1.9c0.8,0,1.7,0.2,2.4,0.5
		c0.8,0.3,1.5,0.8,2,1.4c0,0,0.1,0.1,0.1,0.1c0,0,0,0,0.1,0c0,0,0,0,0,0c0,0,0,0,0.1,0s0.1,0,0.1,0c0,0,0.1-0.1,0.1-0.1
		c0.1-0.1,0.1-0.1,0.1-0.2c0,0,0-0.1,0-0.1c0-0.1,0-0.1,0-0.1c0,0-0.1,0-0.1-0.1c-0.6-0.7-1.4-1.2-2.2-1.6c-0.8-0.4-1.7-0.5-2.7-0.5
		c-1.9,0-3.5,0.7-4.9,2.1c-1.4,1.4-2.1,3.1-2.1,5.1v16.8c0,2,0.7,3.7,2.1,5.1c1.4,1.4,3,2.1,4.9,2.1c1.9,0,3.5-0.7,4.9-2.1
		c1.4-1.4,2.1-3.1,2.1-5.1V384.7z M500.3,396.3c-1.2,1.3-2.7,1.9-4.5,1.9c-1.7,0-3.2-0.6-4.4-1.9c-1.2-1.3-1.9-2.8-1.9-4.6
		c0-1.1,0-2.3,0-3.5c0-1.2,0-2.3,0-3.5c0-1.8,0.6-3.3,1.9-4.6c1.2-1.3,2.7-1.9,4.4-1.9c1.7,0,3.2,0.6,4.5,1.9
		c1.2,1.3,1.9,2.8,1.9,4.6v6.9C502.2,393.5,501.5,395,500.3,396.3z M501.2,385.2c0-1.4-0.5-2.6-1.4-3.6c-1-1-2.1-1.5-3.5-1.5
		c-1.3,0-2.5,0.5-3.5,1.5c-1,1-1.5,2.2-1.5,3.6v6.9c0,1.4,0.5,2.6,1.5,3.6c1,1,2.1,1.5,3.5,1.5c1.4,0,2.5-0.5,3.5-1.5
		c1-1,1.4-2.2,1.4-3.6V385.2z"/>
</g>
<line class="st3" x1="108.3" y1="348.8" x2="162.2" y2="348.8"/>
<line class="st3" x1="107.6" y1="406.9" x2="161.5" y2="406.9"/>
<line class="st3" x1="459.2" y1="356.7" x2="513.1" y2="356.7"/>
<line class="st3" x1="459.2" y1="409.2" x2="513.1" y2="409.2"/>
<g>
	<path class="st2" d="M158.9,526.7l-0.1,6.1c0,0.7-0.2,1.2-0.6,1.7s-0.9,0.7-1.4,0.7h-2c-0.6,0-0.8-0.2-0.5-0.6
		c0.3-0.4,0.5-1,0.5-1.9l0.6-8c0.1-0.7-0.1-1.3-0.4-1.8s-0.2-0.7,0.4-0.7h8c0.7,0,0.8,0.2,0.5,0.7c-0.4,0.5-0.5,1.1-0.5,1.8l0.3,8
		c0,0.8,0.2,1.5,0.5,1.9c0.3,0.4,0.1,0.6-0.5,0.6h-4c-0.6,0-0.9-0.2-0.6-0.6c0.4-0.4,0.6-1,0.6-1.9l0.1-6c0-0.3-0.2-0.5-0.5-0.5
		C159.1,526.3,158.9,526.4,158.9,526.7z"/>
	<path class="st2" d="M170.8,532.7v-8c0-0.8-0.2-1.4-0.5-1.9c-0.3-0.4-0.2-0.7,0.5-0.7h4c0.7,0,0.8,0.2,0.5,0.7
		c-0.3,0.4-0.5,1.1-0.5,1.9v8c0,0.8,0.2,1.4,0.5,1.9s0.2,0.6-0.5,0.6h-4c-0.6,0-0.8-0.2-0.5-0.7S170.8,533.5,170.8,532.7z
		 M172.8,518c0.6,0,1.1,0.2,1.5,0.5c0.4,0.3,0.6,0.8,0.6,1.2s-0.2,0.9-0.6,1.2c-0.4,0.3-0.9,0.5-1.5,0.5c-0.6,0-1.1-0.2-1.5-0.5
		c-0.4-0.3-0.6-0.8-0.6-1.2s0.2-0.9,0.6-1.2C171.7,518.2,172.2,518,172.8,518z"/>
	<path class="st2" d="M187.9,526.7v6c0,0.8,0.2,1.4,0.5,1.9c0.3,0.4,0.2,0.6-0.5,0.6h-4c-0.6,0-0.8-0.2-0.5-0.7
		c0.3-0.4,0.5-1.1,0.5-1.9v-6c0-0.3-0.2-0.5-0.5-0.5h-0.1c-0.8,0-1.3,0.2-1.8,0.6c-0.4,0.4-0.6,0.2-0.6-0.6v-3.7
		c0-0.4,0.2-0.7,0.6-0.7c1.2,0.1,2.6,0.2,4.3,0.2s3.2-0.1,4.3-0.2c0.4,0,0.6,0.2,0.6,0.7v3.7c0,0.8-0.2,1-0.6,0.6
		c-0.4-0.4-1-0.6-1.8-0.6h-0.1C188,526.3,187.9,526.4,187.9,526.7z"/>
	<path class="st2" d="M196,526.1c0-1.1,0.4-2.1,1.3-2.9c0.9-0.8,1.9-1.2,3.2-1.2c1.2,0,2.3,0.4,3.2,1.2s1.3,1.8,1.3,2.9
		s-0.4,2.1-1.3,2.9s-1.9,1.2-3.2,1.2c-0.3,0-0.5,0.2-0.5,0.5v0.3c0,0.3,0.2,0.5,0.5,0.5h1c0.8,0,1.4-0.2,1.8-0.5
		c0.4-0.3,0.6-0.2,0.6,0.5v4.1c0,0.6-0.2,0.7-0.6,0.4c-0.4-0.3-1-0.4-1.8-0.4h-1c-1.2,0-2.3-0.5-3.2-1.4c-0.9-0.9-1.3-2-1.3-3.3
		V526.1z M201,528v-2c0-0.3-0.2-0.5-0.5-0.5c-0.3,0-0.5,0.2-0.5,0.5v2c0,0.3,0.2,0.5,0.5,0.5C200.8,528.5,201,528.4,201,528z"/>
	<path class="st2" d="M215,537.5c0,0.8,0.2,1.4,0.5,1.9c0.3,0.4,0.2,0.6-0.5,0.6h-4c-0.7,0-0.8-0.2-0.5-0.7s0.5-1.1,0.5-1.9v-12.8
		c0-0.8-0.2-1.4-0.5-1.8c-0.3-0.4-0.2-0.7,0.5-0.7h2c0.6,0,1,0.2,1.4,0.7c0.6-0.6,1.3-0.9,2.1-0.9c1,0,1.8,0.5,2.5,1.4s1,2,1,3.2
		v4.3c0,1.6-0.3,2.7-0.8,3.5c-0.5,0.7-1.3,1.1-2.3,1.1c-1,0-1.6-0.6-1.9-1.7V537.5z M215,526.6v4.3c0,0.3,0.2,0.5,0.5,0.5
		c0.3,0,0.5-0.2,0.5-0.5v-4.3c0-0.3-0.2-0.5-0.5-0.5C215.2,526.1,215,526.2,215,526.6z"/>
	<path class="st2" d="M230.7,534.6c-0.6,0.6-1.3,0.8-2.1,0.8c-1,0-1.8-0.4-2.5-1.2s-1-1.8-1-2.9c0-1.1,0.3-2.1,1-2.9
		c0.7-0.8,1.5-1.2,2.5-1.2h1c0.3,0,0.5-0.2,0.5-0.5v-0.3c0-0.3-0.2-0.5-0.5-0.5h-1c-0.8,0-1.4,0.2-1.8,0.5c-0.4,0.3-0.6,0.2-0.6-0.5
		v-4.1c0-0.6,0.2-0.8,0.6-0.5s1,0.5,1.8,0.5h1c1.2,0,2.3,0.5,3.2,1.4c0.9,0.9,1.3,2,1.3,3.3v6.2c0,0.8,0.2,1.4,0.5,1.8
		c0.3,0.4,0.2,0.7-0.5,0.7h-2C231.6,535.2,231.1,535,230.7,534.6z M229.1,530.2v2c0,0.3,0.2,0.5,0.5,0.5c0.3,0,0.5-0.2,0.5-0.5v-2
		c0-0.3-0.2-0.5-0.5-0.5C229.2,529.7,229.1,529.9,229.1,530.2z"/>
	<path class="st2" d="M247.1,526.7v6c0,0.8,0.2,1.4,0.5,1.9c0.3,0.4,0.2,0.6-0.5,0.6h-4c-0.6,0-0.8-0.2-0.5-0.7
		c0.3-0.4,0.5-1.1,0.5-1.9v-6c0-0.3-0.2-0.5-0.5-0.5h-0.1c-0.8,0-1.3,0.2-1.8,0.6c-0.4,0.4-0.6,0.2-0.6-0.6v-3.7
		c0-0.4,0.2-0.7,0.6-0.7c1.2,0.1,2.6,0.2,4.3,0.2s3.2-0.1,4.3-0.2c0.4,0,0.6,0.2,0.6,0.7v3.7c0,0.8-0.2,1-0.6,0.6
		c-0.4-0.4-1-0.6-1.8-0.6h-0.1C247.3,526.3,247.1,526.4,247.1,526.7z"/>
	<path class="st2" d="M259,534.7h-0.9c-0.8,0-1.1-0.2-0.7-0.7s0.4-1.3,0.2-2.5l-1-6.5c-0.2-1.1-0.5-1.9-0.8-2.3
		c-0.3-0.4-0.2-0.6,0.4-0.6h2.2c0.6,0,1.1,0.2,1.6,0.6c0.5,0.4,0.8,1.2,0.8,2.3l0.3,6.1c0,0.3,0.2,0.5,0.5,0.5
		c0.4,0,0.5-0.2,0.5-0.5V525c0-1.1-0.2-1.9-0.5-2.3c-0.3-0.4-0.2-0.6,0.5-0.6h4.1c0.7,0,0.9,0.2,0.5,0.6c-0.4,0.4-0.5,1.2-0.5,2.3
		l-0.3,6.5c-0.2,2.6-0.4,4.5-0.8,5.7c-0.4,1.2-0.9,2.1-1.5,2.7s-1.4,0.9-2.3,0.9c-0.9,0-1.6-0.1-2.2-0.4c-0.6-0.2-1-0.6-1.4-1.1
		c-0.3-0.5-0.5-1-0.5-1.6c0-0.5,0.2-1,0.5-1.4s0.8-0.6,1.4-0.6s1.1,0.2,1.3,0.7c0.3,0.5,0.3,0.9,0,1.4c-0.3,0.4-0.3,0.7,0.2,0.9
		c0.4,0.2,0.8-0.1,1-0.7s0.3-1.2,0.1-1.8c-0.2-0.6-0.5-1-1-1.2C260.3,534.8,259.7,534.7,259,534.7z"/>
	<path class="st2" d="M277.3,537.5c0,0.8,0.2,1.4,0.5,1.9c0.3,0.4,0.2,0.6-0.5,0.6h-4c-0.7,0-0.8-0.2-0.5-0.7s0.5-1.1,0.5-1.9v-12.8
		c0-0.8-0.2-1.4-0.5-1.8c-0.3-0.4-0.2-0.7,0.5-0.7h2c0.6,0,1,0.2,1.4,0.7c0.6-0.6,1.3-0.9,2.1-0.9c1,0,1.8,0.5,2.5,1.4s1,2,1,3.2
		v4.3c0,1.6-0.3,2.7-0.8,3.5c-0.5,0.7-1.3,1.1-2.3,1.1c-1,0-1.6-0.6-1.9-1.7V537.5z M277.3,526.6v4.3c0,0.3,0.2,0.5,0.5,0.5
		c0.3,0,0.5-0.2,0.5-0.5v-4.3c0-0.3-0.2-0.5-0.5-0.5C277.4,526.1,277.3,526.2,277.3,526.6z"/>
	<path class="st2" d="M293,534.6c-0.6,0.6-1.3,0.8-2.1,0.8c-1,0-1.8-0.4-2.5-1.2c-0.7-0.8-1-1.8-1-2.9c0-1.1,0.3-2.1,1-2.9
		c0.7-0.8,1.5-1.2,2.5-1.2h1c0.3,0,0.5-0.2,0.5-0.5v-0.3c0-0.3-0.2-0.5-0.5-0.5h-1c-0.8,0-1.4,0.2-1.8,0.5c-0.4,0.3-0.6,0.2-0.6-0.5
		v-4.1c0-0.6,0.2-0.8,0.6-0.5s1,0.5,1.8,0.5h1c1.2,0,2.3,0.5,3.2,1.4c0.9,0.9,1.3,2,1.3,3.3v6.2c0,0.8,0.2,1.4,0.5,1.8
		s0.2,0.7-0.5,0.7h-2C293.8,535.2,293.4,535,293,534.6z M291.4,530.2v2c0,0.3,0.2,0.5,0.5,0.5c0.3,0,0.5-0.2,0.5-0.5v-2
		c0-0.3-0.2-0.5-0.5-0.5C291.5,529.7,291.4,529.9,291.4,530.2z"/>
	<path class="st2" d="M317.3,526.7c0-0.3-0.2-0.4-0.5-0.4c-0.3,0-0.5,0.2-0.5,0.5v6c0,0.8,0.2,1.4,0.5,1.9s0.2,0.6-0.5,0.6h-4
		c-0.7,0-0.8-0.2-0.5-0.6s0.5-1,0.5-1.9v-8c0-0.8-0.2-1.4-0.5-1.9c-0.3-0.4-0.2-0.7,0.5-0.7h8.9c0.6,0,0.8,0.2,0.5,0.7
		c-0.3,0.4-0.5,1.1-0.5,1.9v8c0,0.8,0.2,1.4,0.5,1.8s0.2,0.7-0.5,0.7h-2c-0.6,0-1-0.2-1.4-0.7c-0.4-0.5-0.6-1-0.6-1.7V526.7z"/>
	<path class="st2" d="M332.3,537.5c0,0.8,0.2,1.4,0.5,1.9c0.3,0.4,0.2,0.6-0.5,0.6h-4c-0.7,0-0.8-0.2-0.5-0.7s0.5-1.1,0.5-1.9v-12.8
		c0-0.8-0.2-1.4-0.5-1.8c-0.3-0.4-0.2-0.7,0.5-0.7h2c0.5,0,1,0.2,1.4,0.7c0.6-0.6,1.3-0.9,2.1-0.9c1,0,1.8,0.5,2.5,1.4s1,2,1,3.2
		v4.3c0,1.6-0.3,2.7-0.8,3.5s-1.3,1.1-2.3,1.1s-1.6-0.6-1.9-1.7V537.5z M332.3,526.6v4.3c0,0.3,0.2,0.5,0.5,0.5
		c0.3,0,0.5-0.2,0.5-0.5v-4.3c0-0.3-0.2-0.5-0.5-0.5C332.4,526.1,332.3,526.2,332.3,526.6z"/>
	<path class="st2" d="M345.3,528.9c-1.3-0.5-2-1.4-2-2.7c0-1.4,0.3-2.4,1-3.2s1.5-1.1,2.5-1.1c0.8,0,1.5,0.3,2.1,0.8
		c0.4-0.4,0.8-0.6,1.3-0.6h2c0.6,0,0.8,0.2,0.5,0.7c-0.3,0.4-0.5,1.1-0.5,1.9v8c0,0.8,0.2,1.4,0.5,1.9s0.2,0.6-0.5,0.6h-4
		c-0.6,0-0.8-0.2-0.5-0.6c0.3-0.4,0.5-1.1,0.5-1.9v-1.5c0-0.3-0.2-0.5-0.5-0.5c-0.3,0-0.5,0.2-0.5,0.5v1.6c0,0.7-0.2,1.2-0.6,1.7
		c-0.4,0.5-0.9,0.7-1.4,0.7h-2c-0.7,0-0.8-0.2-0.5-0.7s0.5-1.1,0.5-1.9v-0.8C343.4,530.4,344,529.4,345.3,528.9z M347.3,525.4v2
		c0,0.3,0.2,0.5,0.5,0.5c0.3,0,0.5-0.2,0.5-0.5v-2c0-0.3-0.2-0.5-0.5-0.5C347.5,525,347.3,525.1,347.3,525.4z"/>
	<path class="st2" d="M364.6,533.5l-1-6.2c0-0.2-0.2-0.3-0.5-0.3c-0.3,0-0.4,0.2-0.3,0.4l0.9,6.1c0.1,0.4,0.2,0.8,0.5,1.2
		s0.1,0.5-0.4,0.5h-4.6c-0.5,0-0.6-0.2-0.3-0.5c0.3-0.3,0.4-0.7,0.5-1.2l0.3-9.4c0-0.6-0.1-1-0.4-1.4s-0.1-0.5,0.5-0.5h5.3
		c0.7,0,0.9,0.2,0.6,0.6c-0.3,0.4-0.4,0.8-0.3,1.4l0.6,4.9c0,0.2,0.2,0.3,0.4,0.3c0.2,0,0.4-0.1,0.4-0.3l0.6-4.9
		c0.1-0.5,0-1-0.3-1.4c-0.3-0.4-0.1-0.6,0.6-0.6h5.3c0.6,0,0.7,0.2,0.5,0.5s-0.4,0.8-0.4,1.4l0.3,9.4c0,0.5,0.2,0.9,0.5,1.2
		c0.3,0.3,0.2,0.5-0.3,0.5h-4.6c-0.5,0-0.7-0.2-0.4-0.5c0.3-0.4,0.4-0.7,0.5-1.2l0.9-6.1c0-0.2-0.1-0.4-0.3-0.4
		c-0.3-0.1-0.4,0-0.5,0.3l-1,6.2c-0.1,0.5-0.7,0.7-1.7,0.7C365.3,534.2,364.7,534,364.6,533.5z"/>
	<path class="st2" d="M383.7,522c1.2,0,2.3,0.5,3.2,1.4c0.9,0.9,1.3,2,1.3,3.3v4.2c0,1.3-0.4,2.3-1.3,3.3c-0.9,0.9-1.9,1.4-3.2,1.4
		c-1.2,0-2.3-0.5-3.2-1.4c-0.9-0.9-1.3-2-1.3-3.3v-4.2c0-1.3,0.4-2.4,1.3-3.3C381.4,522.4,382.4,522,383.7,522z M384.2,530.9v-4.3
		c0-0.3-0.2-0.5-0.5-0.5c-0.3,0-0.5,0.2-0.5,0.5v4.3c0,0.3,0.2,0.5,0.5,0.5C384,531.3,384.2,531.2,384.2,530.9z"/>
	<path class="st2" d="M395,519.8c-0.3,0.5-0.7,0.6-1.2,0.2c-0.5-0.4-0.7-0.8-0.4-1.2l0.8-1.2c0.2-0.2,0.5-0.2,0.9,0.1
		s0.6,0.6,0.5,0.8L395,519.8z M394.2,532.7v-8c0-0.8-0.2-1.4-0.5-1.9c-0.3-0.4-0.2-0.7,0.5-0.7h4c0.7,0,0.8,0.2,0.5,0.7
		c-0.3,0.4-0.5,1.1-0.5,1.9v8c0,0.8,0.2,1.4,0.5,1.9s0.2,0.6-0.5,0.6h-4c-0.7,0-0.8-0.2-0.5-0.7
		C394.1,534.1,394.2,533.5,394.2,532.7z M398.4,519.8c-0.3,0.5-0.7,0.6-1.2,0.2c-0.5-0.4-0.7-0.8-0.4-1.2l0.8-1.2
		c0.2-0.2,0.5-0.2,0.9,0.1s0.6,0.6,0.5,0.8L398.4,519.8z"/>
	<path class="st2" d="M415.6,535.2c-0.8,0-1.4,0.3-1.8,1c-0.4,0.7-0.6,0.7-0.6,0v-3c0-0.8,0.4-1.4,1.1-1.7l0.5-6.7
		c0.1-0.7-0.1-1.4-0.4-1.8c-0.4-0.5-0.2-0.7,0.4-0.7h8c0.7,0,0.8,0.2,0.5,0.7c-0.4,0.5-0.5,1.1-0.5,1.8l0.3,6.7
		c0.7,0.4,1.1,1,1.1,1.7v3c0,0.7-0.2,0.7-0.6,0s-1-1-1.8-1H415.6z M418.2,526.7v3.9c0,0.3,0.1,0.5,0.5,0.5c0.3,0,0.5-0.1,0.5-0.4v-4
		c0-0.3-0.1-0.5-0.4-0.5C418.4,526.3,418.2,526.4,418.2,526.7z"/>
	<path class="st2" d="M430.2,532.7v-8c0-0.8-0.2-1.4-0.5-1.9c-0.3-0.4-0.2-0.7,0.5-0.7h4c0.7,0,0.8,0.2,0.5,0.7
		c-0.3,0.4-0.5,1.1-0.5,1.9v8c0,0.8,0.2,1.4,0.5,1.9s0.2,0.6-0.5,0.6h-4c-0.7,0-0.8-0.2-0.5-0.7
		C430.1,534.1,430.2,533.5,430.2,532.7z M432.2,518c0.6,0,1.1,0.2,1.5,0.5c0.4,0.3,0.6,0.8,0.6,1.2s-0.2,0.9-0.6,1.2
		s-0.9,0.5-1.5,0.5s-1.1-0.2-1.5-0.5s-0.6-0.8-0.6-1.2s0.2-0.9,0.6-1.2C431.2,518.2,431.7,518,432.2,518z"/>
	<path class="st2" d="M442.1,519.8c-0.3,0.5-0.7,0.6-1.2,0.2c-0.5-0.4-0.7-0.8-0.4-1.2l0.8-1.2c0.2-0.2,0.5-0.2,0.9,0.1
		s0.6,0.6,0.5,0.8L442.1,519.8z M441.3,532.7v-8c0-0.8-0.2-1.4-0.5-1.9c-0.3-0.4-0.2-0.7,0.5-0.7h4c0.7,0,0.8,0.2,0.5,0.7
		c-0.3,0.4-0.5,1.1-0.5,1.9v8c0,0.8,0.2,1.4,0.5,1.9s0.2,0.6-0.5,0.6h-4c-0.7,0-0.8-0.2-0.5-0.7
		C441.1,534.1,441.3,533.5,441.3,532.7z M445.5,519.8c-0.3,0.5-0.7,0.6-1.2,0.2c-0.5-0.4-0.7-0.8-0.4-1.2l0.8-1.2
		c0.2-0.2,0.5-0.2,0.9,0.1s0.6,0.6,0.5,0.8L445.5,519.8z"/>
</g>
<polygon class="st2" points="578.3,461.7 437,444.3 464.4,472.6 "/>
<polyline class="st2" points="134.8,471.4 20.9,460.6 162.2,443.1 "/>
<path class="st4" d="M391.3,535.2"/>
<g>
	<polygon id="XMLID_391_" class="st1" points="270.7,429.4 269.5,431.9 270.6,431.6 	"/>
	<path class="st2" d="M275.9,482.7c-0.3,0.9-1.5,2.3-3.7,4.3c-2.2,2-4,3.3-5.3,4c-1.9,1-4.3,1.7-7.2,2.1c-3.9,0.5-5.8-0.5-5.7-3.1
		c0-0.8,1.4-3.1,4.1-7c2.7-3.9,4.1-6.9,4.2-9l0-0.8l-0.1,0.1c-0.1-0.7-0.5-1-1.2-0.9c-0.9,0.1-2.4,1.1-4.7,3
		c-1.7,1.4-3.1,2.7-4.2,3.8c-0.7,0.7-2.1,3-4.3,7.1c-2.2,4.1-3.3,6.4-3.4,7c0,0.7,0.7,1.2,2.1,1.5l-10.5,2c-0.2-0.2-0.2-0.5-0.2-0.8
		c0.1-1.7,1.6-4.9,4.6-9.5c3-4.6,4.6-8,4.6-10.1l0-0.7l-0.1,0.1c-0.1-0.7-0.5-1-1.2-0.9c-1.7,0.2-4.5,2.4-8.4,6.5
		c-1.9,2-3.7,4.7-5.4,8.2c-2.3,4.6-3.7,7.3-4.4,8.3l-10.7,2l9-14c0.5-0.7,1.2-1.7,2.2-3c1-1.3,1.5-2.3,1.5-2.8
		c0-0.7-0.2-0.9-0.7-0.9c-0.2,0-1.1,0.8-2.7,2.2c-1.6,1.4-2.6,2.1-3,2.2c-0.1,0-0.2-0.1-0.3-0.1l-0.1-0.2c1.9-2.2,3.7-4.1,5.1-5.5
		c1.8-1.9,2.9-2.8,4.5-3.3c0.8-0.2,2.6-0.8,3.9,0.2c0.9,0.7,1.7,2.2,1.7,2.7c0,0.1,0,0.3,0.1,0.4c0.1,0.1,0.2,0.1,0.3,0.1
		c-0.1,0,1.3-0.9,4.3-2.6c3-1.7,5.4-2.7,7.1-3c3.9-0.5,5.8,0.6,5.6,3.4c1.8-2,3.5-3.3,4.7-4.1c2.4-1.8,5.8-4.1,10.1-4
		c1.4,0,3.5,0,4.3,1.4c0.8,1.4-0.2,3.5-1.6,6.1c-0.5,1-1.6,3-4.3,6.5c-2.6,3.4-3.8,5-3.9,6.3c0,0.2,0.3,0.4,1,0.7
		c2.4-0.6,5.3-1.6,8.4-3.4C273.5,484.4,274.8,483.5,275.9,482.7z"/>
	<path class="st2" d="M313.6,455.2c-0.6,3-2.6,7.1-5.9,12.3c-3.6,5.7-5.9,9.7-6.7,12.2l1,0.2c2.6-1.3,4.9-3.3,6.7-6
		c1.8-2.7,2.9-4.2,3.3-4.5l0.4-0.1c0.4,0.4,1,1.1,1.2,2.1c0.3,1.4-0.3,3.2-6.9,9.2c-4.9,4.5-7.5,6.1-10.4,7c-2,0.6-3.4,0.7-4.7-0.1
		c-0.2-0.1-1-1.1-2.2-2.8c-1.9,3.4-4.9,5.6-8.9,6.5c-1.8,0.4-3.5,0.2-5-0.5c0,0-1.6-0.9-2.6-3.1c-1.3-3,0.3-11.6,6.5-19.3
		c1.6-2,3.7-4.5,7.3-6.6c5.1-2.9,10-3.1,11.3-3.1c0.2,0,1.5-0.1,3,0.1c1.4,0.2,2.4,0.2,3.1,0.1c0.4-0.2,0.6-0.6,0.6-1.2
		c0.7-0.6,2.1-1.2,4.2-1.6C310.9,455.6,312.5,455.3,313.6,455.2z M300.5,463.6c-0.1-0.2-0.4-0.5-0.7-0.7c-0.9-0.7-2-0.5-2.2-0.4
		l0-0.1c-2,0.8-7.9,3.4-11,9.7c0,0-2.3,4.8-1.5,10.7c0,0.2,0.1,0.6,0.4,0.9c0.3,0.3,0.8,0.3,1.5,0.2c3.6-0.8,8.6-10.4,8.6-10.4
		C297.1,470.9,298.7,467.6,300.5,463.6z"/>
	<path class="st2" d="M368.6,465.6c-0.4,1.3-1.7,3.2-4.1,5.9c-2.4,2.7-4.2,4.4-5.6,5.2c-1.9,1.2-4.3,2-7.2,2.2
		c-3.9,0.3-5.6-1.4-5.2-5.2c0.1-1.1,1.7-4.4,4.7-9.7c3-5.4,4.7-9.6,5-12.6l0.1-1.2l-0.1,0.1c0-1-0.4-1.5-1.1-1.4
		c-0.9,0.1-2.5,1.4-4.9,3.9c-1.8,1.8-3.3,3.5-4.5,5.1c-0.7,0.9-2.4,4.2-5,9.9c-2.6,5.7-3.9,9-4,9.9c-0.1,1,0.5,1.8,1.9,2.4
		l-10.5,1.6c-0.1-0.3-0.2-0.7-0.1-1.2c0.3-2.5,2.1-7,5.5-13.4c3.4-6.4,5.3-11.2,5.6-14.3l0.1-1.1l-0.1,0.1c0-1-0.4-1.5-1.1-1.4
		c-1.6,0.1-4.6,3-8.9,8.5c-2.1,2.7-4.1,6.4-6.2,11.3c-2.7,6.4-4.4,10.3-5.2,11.7c-4.1,1.2-8.2,2.4-12.3,3.7c4-7.2,8-14.3,12-21.5
		c0.5-0.9,1.4-2.3,2.5-4.2c1.1-1.8,1.7-3.2,1.8-3.9c0.1-1-0.1-1.4-0.6-1.4c-0.2,0-1.2,1-2.9,2.8c-1.7,1.9-2.7,2.8-3.1,2.8
		c-0.1-0.1-0.2-0.1-0.3-0.2l-0.1-0.3c2.1-3.5,4.1-5.9,5.5-7.4c0.9-1,2.2-2.2,4.2-2.9c0.9-0.3,1.8-0.6,2.7-0.2c1.8,0.6,3,3.1,2.9,3.9
		c0,0,0,0.6,0.2,0.7c0.1,0,0.1,0,0.2,0c0,0,0,0,0,0c0,0,2-2.6,4.1-4.4c1.7-1.5,4.7-4.1,8.5-4c1,0,2.7,0.1,3.9,1.4
		c1.2,1.4,1.3,3.7,0.4,6c3.9-5.5,7.7-8.7,10.3-10.5c2.8-1.9,4.7-2.6,6.2-1.9c1.5,0.7,2.1,2.5,2.3,3.1c0.8,2.4,0.1,4.7-1.4,8.3
		c-2.3,5.7-3.5,8.6-5.3,11.3c-2.7,4-4.2,6.3-4.5,8.7c0,0.3,0.3,0.7,0.9,1.2c2.3-0.6,5.4-1.7,8.6-3.9
		C366.1,467.9,367.5,466.7,368.6,465.6z"/>
	<path class="st2" d="M418.9,427.4c0.3,0.2-12.5,15.6-15.3,17.5c-0.5,0.3-2.8,1.6-4.1,2.1c0,0-0.1,0-0.1,0c-0.8,0.3-1.6,0.6-2.4,0.7
		c-1.8,5.4-4.2,10.5-7.1,15.6c-4.1,6.9-8.1,11.1-12.3,12.7c-1.4,0.6-5.4,2.1-8.2,0.2c-1.2-0.9-1.7-2.1-2.2-3.2
		c-1.2-2.8-1.2-5.4-1.1-7.1c0.5-8.5,3.7-15.4,3.7-15.4c3.4-7.3,9.3-20.1,18.7-21c0.7-0.1,6.3-0.5,8.7,2.8c0.8,1.2,1,2.5,1.2,4.2
		c0.4,3.5-0.1,6.4-0.7,8.3c0.8-0.1,1.5-0.3,2-0.5c0.1,0,0.2-0.1,0.3-0.1c0.2-0.1,0.4-0.2,0.4-0.2c0.4-0.2,1.9-0.8,2-0.9
		C404.1,442.6,418.7,427.3,418.9,427.4z M392.5,448.1c-4.1,1.2-7.3,0.7-9.6-1.6c-1,1.7-2.2,5-3.7,9.8l0-0.1c0,0.7-0.3,2.2-0.8,4.4
		c-0.5,1.9-0.7,3.4-0.5,4.4c0.3,1.2,1.1,1.5,2.6,1C385.2,464.3,389.2,458.3,392.5,448.1z M394.7,437.6c-0.1-0.7-0.4-2.3-1.6-2.8
		c-1.3-0.6-2.8,0.3-3.4,0.7c-1.2,0.7-1.9,1.8-3.1,3.8c-1.3,2.2-1.9,3.3-1.7,4.3c0.3,1.1,1.2,1.9,3,2.4c1.7,0.4,3.3,0.4,4.7-0.2
		c0.1-0.1,0.3-0.1,0.5-0.3l0-0.1c0.3-0.1,0.6-0.5,0.8-1.1c0.3-0.9,0.4-1.6,0.5-2.5C394.4,438.9,395,439,394.7,437.6z"/>
	<path class="st2" d="M188.7,437.3L188.7,437.3l0.3-0.2c0.8,3,1.7,4.8,2.5,5.5c1.4,1.2,4,1.3,7.8,0.2l1.2-0.3
		c1.2-0.4,3.8-1.9,7.7-4.5c6.2-4.2,9.9-6.7,11.2-7.5c4.5-2.9,8-4.7,10.6-5.5l-0.1,0.1c2.7-0.8,4.7-0.8,6,0c2.7-2.1,5.7-3.5,8.8-4.4
		c3.5-1,5.9,0.1,7.2,3.3c0.8,2.1-0.5,5.4-3.8,9.8c-3.1,4-6.8,7.6-11.3,10.7c2.5-0.5,7.2-1.2,9.1,1.3c3.1,4.1-4.1,13.9-5.2,15.5
		c-3.7,5.1-7.8,7.8-12.8,11.1c-0.4,0.3-6.4,4.2-14.3,6.4c-4.3,1.2-6.5,1.2-7.1,0.1c-0.2-0.2-0.2-0.5-0.2-0.9
		c0.1-3.9,2.5-9.1,7.3-15.4c3-3.9,6.1-6.4,9.4-7.3c3.3-1,4.5,0.2,3.5,3.5c-0.9,2.9-3,6.6-6.4,11.1c-0.1,0.2-0.5,0.6-1.1,1.3l-0.1,0
		c0-0.1-0.3-0.7-0.9-1.9c-0.4-0.7-0.8-1.2-1.3-1.5c2-3.4,3.1-5.5,3.3-6.4l-0.1,0c0.1-1.6-0.2-2.2-0.9-2c-0.5,0.1-1.1,0.6-2,1.3
		c-0.9,0.8-1.6,1.5-2.1,2.1c-3.5,4.7-5.4,8.6-5.6,11.6c-0.2,3,1.5,4,5.1,3c5.6-1.6,10.9-5.7,15.9-12.2c3.9-5.1,6.2-9.5,7-13.1
		c0.3-1.7,0.1-2.9-0.7-3.5c-0.5-0.4-1.6-0.7-3.4-1c-1.7,1.2-3.6,2.3-5.8,3.3c-2.1,1.1-3.8,1.8-5.1,2.2c-0.6,0.2-0.7-0.1-0.4-0.8
		c0.2-0.5,0.6-1.2,1.2-2c0.8-1,2.4-1.9,5-2.8c2.2-0.8,3.8-1.3,4.8-1.7c0.6-0.3,1.1-0.5,1.4-0.7c1.4-1.5,2.8-3.2,4.4-5.2
		c3-3.9,4.9-7.7,5.5-11.3c0.7-3.6-0.5-4.9-3.4-4.1c-0.8,0.2-1.9,0.8-3.3,1.5c1.6,0.5,2.1,2.2,1.6,5.3c-0.6,3.2-2.2,6.5-4.8,9.9
		l-3.1,3.1l-3.1,1.6c-3,0.9-4.1-0.3-3.5-3.6c0.6-3,2.4-6.5,5.4-10.5c0.2-0.3,0.7-0.8,1.3-1.6c0.6-0.7,1.1-1.3,1.3-1.6
		c0.5-0.7,0.2-0.9-1.1-0.5c-2.4,0.7-10.3,5.5-23.8,14.5c-3.3,2.2-5.6,3.7-6.8,4.3c-1.6,0.9-3.4,1.6-5.5,2.2
		c-3.1,0.9-5.4,0.7-6.8-0.5c-1.6-1.3-1.8-3.4-1.9-4.4C186.3,440.8,188.1,438.1,188.7,437.3z M227.6,439.7c-0.9,3-0.3,4.3,1.8,3.6
		c1.1-0.3,2.1-1.1,3.1-2.4c0.4-0.5,0.8-1.2,1.2-2.1c3-6,3.3-9.5,0.8-10.6c-0.2,0.4-0.6,0.9-1.2,1.6c-0.6,0.7-1,1.1-1.2,1.4
		C229.9,434.1,228.4,436.9,227.6,439.7z"/>
	<path class="st2" d="M272.9,436.6c-0.8,2.7-2.5,6.2-5.1,10.8c-2.9,4.9-4.7,8.5-5.5,10.6l0.5,0.2c1-0.7,2.4-1.6,3.6-3.1
		c2-2.2,3-4.4,3.6-5.9l0.2-0.1c0.2,0,0.6,0.1,1,0.4c0,0,0.3,0.3,0.5,0.8c0.2,0.5,0.2,3.2-5.3,9c-1.9,2-4.7,4.7-8,5.5
		c-1.3,0.3-2.2,0.3-2.7-0.2c-0.1-0.1-0.4-1-0.9-2.5c-1.6,3-3.6,4.8-6,5.5c-1.1,0.3-2.1,0.1-2.8-0.6c-0.4-0.4-0.6-0.7-0.7-1
		c-0.7-1.3-1.1-2-1.3-2.8c0,0-0.3-1.1-0.2-2.4c0.2-6.1,3.9-11.6,3.9-11.6c6.1-8.6,14.5-10.1,15.7-10c0.7,0.1,1.7,0.2,1.7,0.2
		c0.8,0.2,1.4,0.3,1.8,0.2c0.3-0.2,0.4-0.5,0.5-1c0.5-0.5,1.4-1,2.7-1.3C271.3,436.8,272.3,436.6,272.9,436.6z M266.5,441.7
		c-0.1-0.5-0.4-0.7-1.1-0.5c-0.6,0.2-1.2,0.6-1.9,1.4l0-0.1c-2.1,2.3-4.2,5.2-6.3,8.6c-2.4,3.9-3.6,7-3.7,9.2c-0.1,0.9,0.3,1.2,1,1
		c1-0.3,3.1-3.3,6.4-9C263.9,447.2,265.8,443.7,266.5,441.7z"/>
	<path class="st2" d="M270,461.2c-0.4-0.3-1-0.9-1.5-1.7c-0.2-0.4-0.7-1.2-0.7-2.3c0-0.3,0-0.5,0.1-0.8c0.1-0.5,0.2-1.4,0.6-2.2
		c0.4-0.9,1.1-1.4,1.5-1.7c0.5-0.4,1.1-0.7,1.4-0.8c-0.2,0.8-0.4,1.4-0.5,1.8c-0.3,1-0.5,1.4-0.6,2.2c-0.1,0.5-0.1,0.9-0.1,1.4
		c0,0.3,0.1,0.7,0.3,1.2c0.1,0.1,0.1,0.2,0.2,0.3c0,0,0.1,0,0.2,0.1c0.6,0.2,0.8,0.4,1.1,0.6c0,0,0.4,0.2,1.3-0.1
		c1-0.3,2.6-4.5,3.8-10.4c0.2,2.6,0.4,5.2,0.7,7.9C276.2,460.5,273.6,462.1,270,461.2z M279,444.3c0,0,6-12.3,16.5-15.2
		c0.6-0.2,2.1-0.6,3,0.2c0.4,0.4,0.6,1.1,0.6,2.1l-0.1,1.3c-0.1,1.6-2.9,7.6-8.4,17.9l0.4,0.3l0.5-0.1c0.9-0.9,1.9-1.7,2.8-2.6
		c2.4-2.2,4.8-4.1,7.1-6c0.1,0.5,0.2,1,0.3,1.5c-5.2,6.1-9.8,10.5-13.8,13.2l-1.4,0.4c-1.6,0.5-2.7,0.2-3.1-0.8l0.1-1.7
		c0.1-1.5,3.4-8.6,10-21.4l0-0.8l-0.9,0.3c-1.9,0.5-6.2,7.3-13.1,20.1c-0.7,1.5-1.3,2.9-1.8,3.9l-2.3,0.2
		C275.9,451.3,277.7,447,279,444.3z"/>
	<path class="st5" d="M326.3,442.2c4.1-4.5,8.6-9.8,13.6-15.9l0.4,1.1c-4.9,6.2-9.3,11.5-13.4,16.1c0.4,0.7,0.5,1.6,0.4,2.8
		c-0.3,5-3,10.8-8,17.3c-5,6.5-10,10.5-14.8,11.9c-1.5,0.4-2.7,0.3-3.7-0.2c-1-0.6-1.4-1.6-1.4-3c0.4-6.2,8.1-15.1,23.3-26.6
		c0.1-0.4,0.1-0.7,0.1-1.1c0.1-1.4-0.4-2.4-1.6-3.1l1.1-1.4C324.3,440.3,325.5,441.1,326.3,442.2z M322,447.7
		c-4.6,3.7-8.7,7.4-12.2,11.1c-5.2,5.6-7.9,10-8.1,13.3c-0.1,1.7,0.6,2.3,2.2,1.9C307.4,472.9,313.5,464.2,322,447.7z M320.9,441.1
		c-2.2,3-4.6,4.9-7.4,5.7c-1.5,0.4-2.2,0.1-2.1-1.1c0.1-1.2,1-2.4,2.7-3.4c1.2-0.8,2.5-1.4,4-1.8c0.4-0.1,1.2-0.2,2.5-0.4
		c1.1-1.6,2.7-4.1,4.7-7.3l-0.2,0.1c-0.2,0.1-0.6,0.2-1,0.4c-0.4,0.2-0.8,0.3-1,0.4c-3.5,1-5.2,0.1-5-2.6c0-0.6,0.7-2.5,1.9-5.6
		c-0.8,1.6-1.8,3.2-3.1,4.9c-0.3,0.5-0.7,0.9-1,1.3c-0.3,0.7-0.5,1.4-0.8,2c-0.9,1.5-1.8,3-2.7,4.6c0.6-3.6,1.8-6.3,2.6-8.2
		c0.3-0.6,1-2.1,2.3-3.9c2.7-3.8,4.7-4.5,5.6-4.8c1.8-0.5,2.6,0.3,2.5,2.6c-0.1,1.2-0.7,2.8-2,4.8c-1.2,1.9-1.9,2.9-1.9,2.8
		c0,0.7,0.5,0.9,1.6,0.6c1-0.3,2-0.7,3.1-1.3c1.7-3.1,3-5.6,4-7.3c2.1-3.6,3.7-5.5,4.8-5.9c1-0.3,1.4,0.3,1.3,1.7
		c0,0.6-2.1,3.7-6.2,9.2c-4.6,6.3-7.3,10.1-8.1,11.4c0.1,0,0.1,0,0.2,0.1C322,440.3,321.4,440.7,320.9,441.1z"/>
	<path class="st2" d="M349.6,439.1c-2,0.2-3.2-0.6-3.6-2.4c-0.4-1.8,0.9-5.2,3.8-10.2l-0.1-0.5c-5.1,1.5-8.7,6.9-10.8,16.2l-7,2
		c4.6-11.3,7.2-17.9,8-19.9l3.9-8.6l2.8-0.8c2.2-0.6,3.3-0.8,3.4-0.8l-4.5,11.3l0.6-0.2c4-1.2,7.3-5.4,9.8-12.5l6.5-1.9l0.1,0.5
		c-4.1,7.8-7.1,14.8-9.2,20.8l0.8,0.3l0.6-0.2c0.1-0.1,0.3-0.2,0.4-0.4l-0.4,3.5C352.4,437.9,350.7,439,349.6,439.1z M364.7,420.9
		c-1.3,2.7-2.6,5.3-4,8c-2.3,2.8-4.4,5.1-6.1,6.8l0.4-3.5c1-0.9,2-1.9,3-3C360.7,426.4,362.9,423.6,364.7,420.9z"/>
	<path class="st2" d="M363.9,434.5c-1.1,0.3-2.1,0.1-2.8-0.6c-0.8-0.7-1.1-1.7-1.1-2.8c0.1-0.9,0.3-1.8,0.8-2.9l8.2-18.5l7.2-2.7
		c-1.8,2.8-3.6,5.9-5.3,9.5c-2.1,4.4-3.3,7.5-3.4,9.6c0,0.5,0,1,0.2,1.4c0.2,0.6,0.5,0.9,0.9,0.7c0.5-0.1,1.3-0.9,2.3-2.3l-1,3.1
		C368.3,431.9,366.3,433.8,363.9,434.5z M375.6,418c2.7-4.9,4.8-8.9,6.2-12.1l6.8-2.6l-5.8,10.6c-0.7,1.2-1.7,3-3,5.4
		c-1.1,2-2,3.8-2.6,5.5l0.5,0.2c1.4-1.6,3-3.4,4.7-5.1c1.7-1.7,3.4-3.3,5-4.7c-0.8,0.7-1.5,1.5-2.3,2.2c0.3-0.1,0.7-0.2,1.1-0.5
		c1.1-0.8,1.5-2.1,1.4-2.2c-0.2-0.1-1.6,2.9-6.9,10.3c-2,2.8-4.2,5.7-7.2,6.6c-1.3,0.4-2.2,0.3-2.7-0.2c-0.1-0.1-0.4-1-0.9-2.5
		l1-3.1C372.1,424.2,373.7,421.6,375.6,418z"/>
	<path class="st2" d="M392.5,422.4c-1.6,3-3.6,4.8-6,5.5c-1.1,0.3-2.1,0.1-2.8-0.6c-0.8-0.7-1.1-1.7-1.1-2.8
		c0.1-0.9,0.3-1.8,0.8-2.9l8.2-18.5l7.2-2.7c-1.8,2.8-3.6,5.9-5.3,9.5c-2.1,4.4-3.3,7.5-3.4,9.6c0,0.5,0,1,0.2,1.4
		c0.2,0.6,0.5,0.9,0.9,0.7c0.8-0.2,2.2-1.9,4.1-5.1l-2.7,6C392.6,422.4,392.5,422.4,392.5,422.4z M398.3,411.4
		c2.7-4.9,4.8-8.9,6.2-12.1l6.8-2.6l-5.8,10.6c-0.7,1.2-1.7,3-3,5.4c-1.1,2-2,3.8-2.6,5.5l0.5,0.2c1.7-1,3.3-2.7,4.7-5.1
		c1.4-2.4,2.3-3.7,2.5-3.9l0.3-0.1c0.2,0.2,0.2,0.4,0.2,0.6c-0.1,1.8-1.7,4.6-4.8,8.5c-3.1,3.9-5.5,6.1-7.2,6.6
		c-1.3,0.4-2.2,0.3-2.7-0.2c-0.1-0.1-0.4-0.9-0.8-2.4l2.7-6C396.2,415.1,397.2,413.4,398.3,411.4z M395.8,393.7l2.1-0.6
		c0.7-0.2,1,1,0.8,3.7l3.6,0c2.3-0.7,3.6-2.3,3.9-5l1.7-1.5l1.1-0.3l1.5,1l-0.1,1.5c-2.1,3.2-4.8,5.3-8.2,6.3l-1.6,0.5
		c-2.8,0.8-5,0-6.6-2.5C394.7,394.8,395.3,393.8,395.8,393.7z"/>
	<path class="st4" d="M262.8,476.6"/>
	<path class="st4" d="M287.7,466.2"/>
	<path class="st4" d="M303.5,481.6"/>
	<path class="st4" d="M372.1,455.8"/>
	<path class="st4" d="M239.5,453c-0.1,1.8-0.2,3.6-0.2,5.4"/>
	<path class="st6" d="M291.7,415.6"/>
	<path class="st2" d="M312.9,438.1c-2.1,4.2-3,6.4-4.9,8.7c-3.1,3.9-5.6,6.1-7.6,6.6c-2,0.6-2.9-0.6-2.7-3.4c0.1-1.5,0.8-3.5,2-5.8
		l3.1-5.8c0.4-0.9,1.6-3.7,3.7-8.6l6.6-1.9c-3.7,7.1-6.5,13.3-8.5,18.6l0.6,0.3c1.7-2,2.9-3.7,3.7-5c0.8-1.4,1.6-2.8,3.1-5.8
		c1.5-3,1.5-3.2,2.1-4c0.9-1.5,2.3-3.2,4.5-5c-1.1,2.2-2.2,4.3-3.4,6.5C314.7,434.5,313.9,436.1,312.9,438.1z M317,418.6
		c-0.1,1.5-0.4,2.6-0.9,3.2c-0.5,0.6-1.5,1.2-3,1.6c-1.7,0.5-2.5,0.3-2.4-0.6l0.2-2.8c0-0.6,0.6-1.3,1.7-2.1
		c1.1-0.8,1.9-1.3,2.5-1.5C316.5,416,317.2,416.7,317,418.6z"/>
	<path class="st4" d="M389.7,422"/>
	<path class="st4" d="M386.7,421.7"/>
	<path class="st4" d="M407.1,486.4"/>
	<path class="st4" d="M338.6,431.2"/>
	<path class="st4" d="M340.5,427.4"/>
	<path class="st4" d="M276.1,504.4"/>
</g>
<line class="st3" x1="128.2" y1="509.1" x2="475.5" y2="509.1"/>
<path class="st1" d="M475.9,342.2"/>
<g>
	<path class="st2" d="M130.9,325.6l-0.3,2.8l-26.8-2.6l0.3-2.8L130.9,325.6z M131.5,320l-0.3,2.8l-26.8-2.6l0.3-2.8L131.5,320z"/>
	<path class="st2" d="M133.1,309.3l-0.5,2.8l-26.5-4.9l0.5-2.8L133.1,309.3z M134.1,303.7l-0.5,2.8l-26.5-4.9l0.5-2.8L134.1,303.7z"
		/>
	<path class="st2" d="M136.6,293.2l-0.7,2.7l-26-7.1l0.7-2.7L136.6,293.2z M138.1,287.7l-0.7,2.7l-26-7.1l0.7-2.7L138.1,287.7z"/>
	<path class="st2" d="M141.5,277.5l-1,2.7l-25.3-9.3l1-2.7L141.5,277.5z M143.5,272.2l-1,2.7l-25.3-9.3l1-2.7L143.5,272.2z"/>
	<path class="st2" d="M147.8,262.2l-1.2,2.6l-24.4-11.4l1.2-2.6L147.8,262.2z M150.2,257.1l-1.2,2.6l-24.4-11.4l1.2-2.6L150.2,257.1
		z"/>
	<path class="st2" d="M155.3,247.6l-1.4,2.5l-23.3-13.5l1.4-2.5L155.3,247.6z M158.2,242.7l-1.4,2.5l-23.3-13.5l1.4-2.5L158.2,242.7
		z"/>
	<path class="st2" d="M164.1,233.7l-1.6,2.3l-22-15.5l1.6-2.3L164.1,233.7z M167.3,229l-1.6,2.3l-22-15.5l1.6-2.3L167.3,229z"/>
	<path class="st2" d="M174,220.6l-1.8,2.2l-20.6-17.4l1.8-2.2L174,220.6z M177.7,216.2l-1.8,2.2L155.3,201l1.8-2.2L177.7,216.2z"/>
	<path class="st2" d="M185.1,208.4l-2,2l-18.9-19.2l2-2L185.1,208.4z M189.1,204.4l-2,2l-18.9-19.2l2-2L189.1,204.4z"/>
	<path class="st2" d="M197.2,197.3l-2.2,1.8l-17.1-20.8l2.2-1.8L197.2,197.3z M201.6,193.7l-2.2,1.8l-17.1-20.8l2.2-1.8L201.6,193.7
		z"/>
	<path class="st2" d="M210.3,187.4l-2.3,1.6l-15.1-22.3l2.3-1.6L210.3,187.4z M215,184.2l-2.3,1.6l-15.1-22.3l2.3-1.6L215,184.2z"/>
	<path class="st2" d="M224.2,178.7l-2.5,1.4l-13-23.6l2.5-1.4L224.2,178.7z M229.2,176l-2.5,1.4l-13-23.6l2.5-1.4L229.2,176z"/>
	<path class="st2" d="M238.9,171.4l-2.6,1.1l-10.7-24.7l2.6-1.1L238.9,171.4z M244.1,169.1l-2.6,1.1l-10.7-24.7l2.6-1.1L244.1,169.1
		z"/>
	<path class="st2" d="M254.2,165.5l-2.7,0.9l-8.2-25.6l2.7-0.9L254.2,165.5z M259.6,163.8l-2.7,0.9l-8.2-25.6l2.7-0.9L259.6,163.8z"
		/>
	<path class="st2" d="M270,161.1l-2.8,0.6l-5.7-26.3l2.8-0.6L270,161.1z M275.6,159.9l-2.8,0.6l-5.7-26.3l2.8-0.6L275.6,159.9z"/>
	<path class="st2" d="M286.2,158.3l-2.8,0.3l-3.2-26.7l2.8-0.3L286.2,158.3z M291.8,157.6l-2.8,0.3l-3.2-26.7l2.8-0.3L291.8,157.6z"
		/>
	<path class="st2" d="M302.5,157l-2.8,0.1l-0.6-26.9l2.8-0.1L302.5,157z M308.2,156.8l-2.8,0.1l-0.6-26.9l2.8-0.1L308.2,156.8z"/>
	<path class="st2" d="M318.9,157.2l-2.8-0.2l1.9-26.9l2.8,0.2L318.9,157.2z M324.6,157.6l-2.8-0.2l1.9-26.9l2.8,0.2L324.6,157.6z"/>
	<path class="st2" d="M335.3,159l-2.8-0.5L337,132l2.8,0.5L335.3,159z M340.9,160l-2.8-0.5l4.5-26.6l2.8,0.5L340.9,160z"/>
	<path class="st2" d="M413.4,192.9l-2.2-1.7l16.5-21.3l2.2,1.7L413.4,192.9z M417.9,196.3l-2.2-1.7l16.5-21.3l2.2,1.7L417.9,196.3z"
		/>
	<path class="st2" d="M426,203.4l-2.1-1.9l18.3-19.8l2.1,1.9L426,203.4z M430.2,207.3l-2.1-1.9l18.3-19.8l2.1,1.9L430.2,207.3z"/>
	<path class="st2" d="M437.6,215l-1.9-2.1l20-18.1l1.9,2.1L437.6,215z M441.5,219.2l-1.9-2.1l20-18.1l1.9,2.1L441.5,219.2z"/>
	<path class="st2" d="M448.2,227.6l-1.7-2.3l21.5-16.2l1.7,2.3L448.2,227.6z M451.7,232.1l-1.7-2.3l21.5-16.2l1.7,2.3L451.7,232.1z"
		/>
	<path class="st2" d="M457.7,241.1l-1.5-2.4l22.8-14.3l1.5,2.4L457.7,241.1z M460.7,245.9l-1.5-2.4l22.8-14.3l1.5,2.4L460.7,245.9z"
		/>
	<path class="st2" d="M466,255.4l-1.3-2.5l24-12.3l1.3,2.5L466,255.4z M468.5,260.4l-1.3-2.5l24-12.3l1.3,2.5L468.5,260.4z"/>
	<path class="st2" d="M473,270.3l-1.1-2.6l24.9-10.2l1.1,2.6L473,270.3z M475.1,275.5l-1.1-2.6l24.9-10.2l1.1,2.6L475.1,275.5z"/>
	<path class="st2" d="M478.7,285.7l-0.9-2.7l25.7-8.1l0.8,2.7L478.7,285.7z M480.4,291.1l-0.9-2.7l25.7-8.1l0.8,2.7L480.4,291.1z"/>
	<path class="st2" d="M483.1,301.6l-0.6-2.8l26.3-5.9l0.6,2.8L483.1,301.6z M484.3,307.1l-0.6-2.8l26.3-5.9l0.6,2.8L484.3,307.1z"/>
	<path class="st2" d="M486.1,317.8l-0.4-2.8l26.7-3.7l0.4,2.8L486.1,317.8z M486.9,323.4l-0.4-2.8l26.7-3.7l0.4,2.8L486.9,323.4z"/>
	<path class="st2" d="M487.8,334.2l-0.2-2.8l26.9-1.5l0.2,2.8L487.8,334.2z M488.1,339.9L488,337l26.9-1.5l0.2,2.8L488.1,339.9z"/>
</g>
</svg>
